<?xml version="1.0" encoding="utf-8"?>
<!-- Generator: Adobe Illustrator 25.4.1, SVG Export Plug-In . SVG Version: 6.00 Build 0)  -->
<svg version="1.1" id="Layer_1" xmlns="http://www.w3.org/2000/svg" xmlns:xlink="http://www.w3.org/1999/xlink" x="0px" y="0px"
	 viewBox="0 0 30.7 30.7" style="enable-background:new 0 0 30.7 30.7;" xml:space="preserve">
<style type="text/css">
	.st0{fill:#FFFFFF;}
</style>
<path class="st0" d="M26,5.7c-2-0.9-4.1-1.6-6.3-2c-0.3,0.5-0.6,1.1-0.8,1.6c-2.4-0.3-4.7-0.3-7,0c-0.2-0.5-0.5-1.2-0.8-1.6
	c-2.2,0.4-4.4,1-6.3,2c-4,5.9-5.1,11.7-4.6,17.4C2.8,25,5.4,26.2,7.9,27c0.6-0.8,1.2-1.7,1.7-2.7c-0.9-0.3-1.8-0.8-2.6-1.3
	c0.2-0.2,0.4-0.3,0.6-0.5c5.1,2.3,10.5,2.3,15.5,0c0.2,0.2,0.4,0.3,0.6,0.5c-0.8,0.5-1.7,0.9-2.6,1.3c0.5,0.9,1,1.8,1.7,2.7
	c2.5-0.8,5.1-2,7.8-3.9C31.2,16.5,29.5,10.7,26,5.7z M10.3,19.6c-1.5,0-2.8-1.4-2.8-3.1s1.2-3.1,2.8-3.1c1.5,0,2.8,1.4,2.8,3.1
	C13,18.2,11.8,19.6,10.3,19.6z M20.4,19.6c-1.5,0-2.8-1.4-2.8-3.1s1.2-3.1,2.8-3.1c1.5,0,2.8,1.4,2.8,3.1
	C23.2,18.2,22,19.6,20.4,19.6z"/>
</svg>
