<?xml version="1.0" encoding="utf-8"?>
<!-- Generator: Adobe Illustrator 26.0.1, SVG Export Plug-In . SVG Version: 6.00 Build 0)  -->
<svg version="1.1" id="Layer_1" xmlns="http://www.w3.org/2000/svg" xmlns:xlink="http://www.w3.org/1999/xlink" x="0px" y="0px"
	 viewBox="0 0 760.62 869.63" style="enable-background:new 0 0 760.62 869.63;" xml:space="preserve">
<style type="text/css">
	.st0{fill:url(#SVGID_1_);}
	.st1{fill:url(#SVGID_00000173142983692626843390000015323722426849792924_);}
	.st2{fill:url(#SVGID_00000138548929894817873690000006389874734805960579_);}
	.st3{fill:url(#SVGID_00000045605607955526720960000003757919579260625085_);}
	.st4{fill:url(#SVGID_00000054986595426350466200000017901292747223040432_);}
	.st5{fill:#FFFFFF;}
</style>
<g>
	<linearGradient id="SVGID_1_" gradientUnits="userSpaceOnUse" x1="0" y1="404.412" x2="498.2876" y2="404.412">
		<stop  offset="0" style="stop-color:#E6BF58"/>
		<stop  offset="0.1155" style="stop-color:#E7C260"/>
		<stop  offset="0.2966" style="stop-color:#EBCB76"/>
		<stop  offset="0.5205" style="stop-color:#F0D99B"/>
		<stop  offset="0.7761" style="stop-color:#F8ECCD"/>
		<stop  offset="1" style="stop-color:#FFFFFF"/>
	</linearGradient>
	<path class="st0" d="M331.64,657.89c-6.61-15.37-5.61-42.81-26.48-60.89c-27.85,21.09,5.97,47.78,21.46,59.07
		c-9.83-3.53-19.5-6.84-29.01-10.07c-6.68-14.12-9.17-42.12-24.43-58.15c-26.52,22.69,2.9,45.71,18.32,56.09
		c-9.59-3.25-19.03-6.45-28.33-9.74c-6-14.47-6.14-40.93-19.8-57.14c-23.12,17.92-7.48,37.32,14.4,55.2
		c-9.36-3.38-18.57-6.88-27.65-10.67c-4.88-14.26-2.89-40.47-15.15-57.64c-23.62,16.09-10.08,36.78,10.33,55.6
		c-9.08-3.91-18.04-8.14-26.89-12.82c-4.09-14.82,0.65-39.5-10.05-58.42c-23.91,14.07-12.48,36.31,6.37,56.44
		c-8.99-4.92-17.86-10.34-26.64-16.44c-2.68-14.12,4.43-38.27-4.22-58.2c-23.72,11.53-16.06,35.3,0.34,55.45
		c-8.18-5.89-16.27-12.4-24.3-19.65c-0.75-14.4,8.19-36.87,1.94-56.61c-22.93,8.78-19.62,31.64-6.54,52.35
		c-9.52-8.98-15.69-15.44-20.75-21.08c1-13.99,12.24-34.3,8.05-54.61c-22.49,6.31-22,28.79-12.38,49.68
		c-6.34-7.41-12.22-15.07-17.65-22.94c2.71-13.39,15.62-31.63,13.85-52.48c-25.24,4.65-22.57,30.84-17.65,46.83
		c-5.27-8.05-10.1-16.32-14.47-24.77c4.36-13.3,19.19-28.84,19.15-49.9c-23.66,2.38-25.32,26.54-22.17,43.87
		c-4.21-8.63-7.98-17.45-11.29-26.43c5.72-12.36,22.06-26.14,23.8-47.03c-24.18,0.61-26.88,26.02-26.03,40.75
		c-3.12-9.06-5.81-18.27-8.06-27.61c6.64-10.73,24.28-23.99,27.69-44.04c-22.94-0.84-28.45,22.81-29.17,37.6
		c-2.06-9.38-3.69-18.89-4.91-28.49c8.35-11.11,25.34-18.95,30.91-40.91c-21.43-1.82-29.48,19.31-31.71,34.07
		c-1-9.43-1.61-18.95-1.85-28.52c8.46-8.99,26.86-17.73,33.49-37.81c-21.12-2.61-30.28,17.86-33.59,30.96
		c-0.05-9.49,0.27-19.03,0.94-28.6c9.07-8.04,27.47-14.83,35.55-34.67c-11.63-1.8-24.86,0.19-34.98,27.65
		c0.89-10.03,2.05-19.07,3.52-28.14c9.74-7.29,27.76-12,37.26-31.48c-5.46-1-21.57-6.3-36.09,24.62c1.83-9.87,3.83-19.02,6.08-27.8
		c10.22-6.39,28.11-9.55,38.79-28.1c-18.62-3.94-30.97,10.48-36.94,21.12c2.52-9.1,5.35-17.91,8.58-26.83
		c11.1-5.67,27.06-5.93,40.07-24.88c-15.88-3.76-29.53,6.19-37.27,17.36c3.26-8.47,6.23-15.55,10.76-25.21
		c12.06-5.1,26.26-2.47,40.95-21.85c-14.99-3.65-28.84,4.14-37.26,14.18c3.96-8.02,8.19-15.93,12.64-23.68
		c11.49-3.67,26.36-1.29,41.59-19.09c-17.1-4.3-30.25,4.65-37.63,12.35c4.75-7.94,9.73-15.69,14.89-23.19
		c12.68-3.19,24.65,1.56,41.99-16.4c-17-4.45-29.95,3.13-37.35,9.8c2.67-3.72,5.38-7.38,8.13-10.96
		c9.06-6.25,24.08-21.5,38.07-49.75c-24.89,8.33-27.6,25.76-53.76,62.86c3.31-6.27,10.22-25.34-3.9-41.05
		c-10.34,20.76,0.88,26.84,3.04,42.28c-6.3,9-12.24,18.2-17.8,27.58c5.46-12.34,6.22-27.65-8.19-40.39
		c-8.56,21.63,3.28,27.78,6.66,43c-5.49,9.42-10.61,19.03-15.32,28.82c12.01-34.25-11.01-39.87-11.98-40.54
		c-6.68,22.44,5.61,28.12,10.55,43.55c-4.78,10.15-9.14,20.49-13.05,31.02c6.99-39.11-11.01-39.15-15.6-41.5
		c-4.7,24.07,8.17,27.4,14.79,43.68c-3.67,10.07-6.94,20.31-9.78,30.7c2-15.71-1.93-32.91-20.3-39.63
		c-2.37,23.97,11.51,28.49,19.32,43.25c-2.75,10.44-5.09,21.03-6.98,31.78c-0.18-10.27-3.34-34.1-24.44-38.79
		c0.24,24.63,14.33,27.43,23.88,42.13c-1.48,8.86-2.8,18.41-3.93,30c-2.52-37.62-24.2-34.6-28.68-35.02
		c2.73,24.76,16.88,26.32,28.17,40.55c-0.8,9.39-1.29,18.53-1.46,27.42c-5.86-30.84-21.25-30.47-32.13-30.13
		c5.11,24.38,19.19,25.14,32.05,38.14c0.01,8.81,0.32,17.37,0.92,25.69C23.74,337.57,6.1,344.25,0,345.24
		c7.29,23.27,22.08,24.32,35.77,35.17c0.83,8.21,1.94,16.18,3.32,23.91c-12.86-26.5-25.81-23.84-37.36-20.34
		c9.6,22.4,24.2,22.24,39.61,31.74c1.77,8.12,3.84,15.98,6.19,23.58c-10.05-14.69-23.3-24.33-40.07-16.57
		c12.58,21.72,26.97,19.88,43.78,27.77c2.92,8.19,6.17,16.07,9.72,23.66c-11.38-12.79-27.26-23.74-43.39-13.14
		c14.58,20.06,30.25,17.17,48.31,23.13c4.03,7.76,8.4,15.19,13.03,22.31c-25.61-24.89-37.24-16.76-46.7-8.24
		c18.57,19.15,33.36,13.2,53.06,17.57c6.12,8.59,12.64,16.7,19.51,24.36c-37.4-28.17-44.8-17.06-53.32-6.57
		c21.04,16.73,34.79,8.92,57.5,11.13c7.94,8.49,16.29,16.42,24.94,23.82c-45.11-27.76-52.1-13.73-58.9-2.15
		c23.01,14.26,37.46,4.07,60.96,3.9c28.12,23.65,59.26,41.89,89.63,56.35c-31.97-7.88-56.54-9.64-60.21,18
		c26.71,5.5,40.41-10.48,62.11-17.1c8.98,4.24,17.9,8.15,26.63,11.77c-28.88-3.95-53.81-5.04-54.41,24.4
		c27.99,2.1,36.44-12.33,59.58-22.29c7.48,3.03,14.81,5.85,21.93,8.5c-25.74-1.57-48.05,3.4-46.06,29.66
		c27.66-0.25,37.21-16.28,56.06-26.01c7.29,2.62,14.32,5.05,21.01,7.33c-25.45-1.62-43.78,5.05-41.32,31.68
		c24.38-2.92,33.13-18.22,53.54-27.55c84.72,28.54,144.69,71.68,166.83,98.57l7-5.51C474.85,728.65,411.69,687.12,331.64,657.89
		L331.64,657.89z"/>
	
		<linearGradient id="SVGID_00000016039908936828169470000009572241709718785169_" gradientUnits="userSpaceOnUse" x1="132.6979" y1="613.4419" x2="195.933" y2="613.4419">
		<stop  offset="0" style="stop-color:#E6BF58"/>
		<stop  offset="0.1155" style="stop-color:#E7C260"/>
		<stop  offset="0.2966" style="stop-color:#EBCB76"/>
		<stop  offset="0.5205" style="stop-color:#F0D99B"/>
		<stop  offset="0.7761" style="stop-color:#F8ECCD"/>
		<stop  offset="1" style="stop-color:#FFFFFF"/>
	</linearGradient>
	<path style="fill:url(#SVGID_00000016039908936828169470000009572241709718785169_);" d="M132.7,622.1
		c27.78,8.34,38.97-5.92,63.24-10.76C164.21,599.95,139.65,595.04,132.7,622.1L132.7,622.1z"/>
	
		<linearGradient id="SVGID_00000052782685975253871920000010585141767169000346_" gradientUnits="userSpaceOnUse" x1="102.3284" y1="589.8584" x2="165.2218" y2="589.8584">
		<stop  offset="0" style="stop-color:#E6BF58"/>
		<stop  offset="0.1155" style="stop-color:#E7C260"/>
		<stop  offset="0.2966" style="stop-color:#EBCB76"/>
		<stop  offset="0.5205" style="stop-color:#F0D99B"/>
		<stop  offset="0.7761" style="stop-color:#F8ECCD"/>
		<stop  offset="1" style="stop-color:#FFFFFF"/>
	</linearGradient>
	<path style="fill:url(#SVGID_00000052782685975253871920000010585141767169000346_);" d="M102.33,595.98
		c25.49,11.5,38.93-1.15,62.89-3.58C127.71,574.33,111.47,573.52,102.33,595.98L102.33,595.98z"/>
	
		<linearGradient id="SVGID_00000098180006564402097980000008000720288622474162_" gradientUnits="userSpaceOnUse" x1="262.4738" y1="405.5527" x2="760.6215" y2="405.5527">
		<stop  offset="0" style="stop-color:#E6BF58"/>
		<stop  offset="0.1155" style="stop-color:#E7C260"/>
		<stop  offset="0.2966" style="stop-color:#EBCB76"/>
		<stop  offset="0.5205" style="stop-color:#F0D99B"/>
		<stop  offset="0.7761" style="stop-color:#F8ECCD"/>
		<stop  offset="1" style="stop-color:#FFFFFF"/>
	</linearGradient>
	<path style="fill:url(#SVGID_00000098180006564402097980000008000720288622474162_);" d="M759.58,379.94
		c-18.7-5.71-29.88,10.47-40.19,30.2c2.07-9.59,3.69-19.19,4.89-28.75c7.61-6.17,30.69-15.68,36.35-40.57
		c-19.2-2.55-28.12,14.64-35.58,33.87c0.99-9.43,1.63-18.81,1.87-29.03c6.85-6.93,28.07-18.2,30.97-43.51
		c-18.52,0.55-25.63,16.86-30.89,36.71c0.05-9.8-0.3-19.45-0.98-28.92c6.05-7.5,25.44-20.16,25.64-45.74
		c-16.45,3.18-22.4,16.26-26.2,38.9c-0.91-10.19-2.1-19.35-3.62-28.6c5.42-8.27,22.8-21.67,20.24-47.39
		c-7.01,2.6-18.91,5.19-21.42,40.5c-1.86-9.95-3.38-17.22-6.18-28.01c4.96-9.48,20.06-22.64,14.59-48.54
		c-6.25,3.63-17.08,6.99-16.41,41.7c-2.93-10.51-5.78-19.13-8.75-27.26c3.54-8.87,17.32-24.36,9-48.89
		c-4.82,4.04-15.47,8.72-11.49,42.22c-3.38-8.81-6.59-16.43-11.2-26.26c3.2-10.81,14.5-24.39,3.74-48.65
		c-4.67,5.37-13.74,10.33-6.93,41.98c-4.13-8.43-8.75-16.98-13.35-24.93c2.16-11,11.92-24.91-1.18-47.88
		c-2.75,4.43-12.04,11.08-2.61,41.45c-4.91-8.19-10.03-16.13-15.29-23.73c1.25-11.29,9.54-25.09-5.88-46.65
		c-2.77,6.66-10.06,12.08,1.39,40.27c-3-4.18-6.03-8.24-9.09-12.18c-13.61-32.43-31.17-37.43-44.09-41.99
		c7.67,19.09,22.64,30.53,37.92,41.94c5.11,6.56,10.09,13.31,14.89,20.27c-3.84-4.42-19.21-18.01-39.42-6.44
		c16.61,12.93,26.6,4.24,39.99,7.29c6.27,9.13,12.25,18.59,17.88,28.31c-4.6-5.82-19.46-19.48-39.43-8.96
		c16.13,14.21,26.53,6.26,40.35,10.54c5.15,8.99,9.98,18.21,14.47,27.62c-7.91-12.42-21.29-18.42-38.59-10.25
		c15.41,15.42,26.93,8.42,40.35,13.94c4.59,9.87,8.77,19.95,12.52,30.17c-19.41-32.07-36-16.42-39.08-15.17
		c14.12,16.4,26.1,10.58,39.97,17.6c3.46,9.63,6.37,18.71,9.54,30.72c-4.03-8.41-16-26.36-38.36-18.55
		c13.12,17.63,25.79,13.01,39.14,21.51c2.43,9.54,4.56,19.47,6.32,29.73c-11.13-34.31-36.21-21.06-37.17-20.79
		c11.49,18.69,24.88,15.51,37.96,25.54c1.65,10.36,2.88,20.27,3.75,31.61c-11.84-38.96-31.98-26.93-36.21-26
		c10,19.63,24.08,17.96,36.46,29.39c0.7,10.29,0.98,20.8,0.79,31.46c-8.4-40.28-29.51-30.22-34.55-29.43
		c8.52,20.45,22.95,20.3,34.47,33.14c-0.3,10.65-1.03,20.91-2.24,31.11c-4.65-41.39-26.69-33.46-32.4-32.94
		c7.03,21.35,21.28,22.4,31.92,36.89c-1.28,9.81-3.06,20.16-5.4,30.37c-0.6-41.98-22.61-36.56-29.64-36.44
		c5.35,22.09,19.79,24.98,28.67,40.56c-2.39,9.82-5.25,19.61-8.68,29.26c4.55-42.46-19.43-39.43-26.18-39.87
		c2.98,21.97,17.44,27.4,24.65,44.11c-3.46,9.42-7.47,18.67-11.97,27.73c7.47-33.7-4.49-40.37-22.03-43.18
		c1.26,23.23,14.77,29.6,19.86,47.47c-4.52,8.76-9.85,17.73-15.2,25.78c13.42-36.57-3.37-42.59-17.12-46.22
		c-1.61,22.12,11.16,31.32,14.3,50.39c-6.37,9.23-12.2,16.51-18.19,23.47c11.75-22.97,11.71-39.94-11.66-48.81
		c-4.09,22,7.62,33.56,8.21,52.78c-6.9,7.52-12.4,13.25-20.76,20.82c14.93-22.38,17.08-39.2-5.92-50.76
		c-6.59,22.82,3.61,34.49,1.79,54.43c-8.27,7.2-16.41,13.57-22.9,18.17c19.61-22.81,21.09-38.76-0.06-52.14
		c-9.26,22.02-0.5,35.01-4.66,55.47c-7.98,5.52-16.15,10.65-24.46,15.41c27.4-26.28,21.56-40.54,5.54-52.84
		c-11.64,20.35-4.5,35.71-10.88,55.86c-8.45,4.66-17.03,8.96-25.66,12.91c31.03-24.41,25.61-39.89,10.85-53.16
		c-14.41,21.5-7.96,34.92-16.65,55.76c-8.99,3.94-18.02,7.55-26.58,10.66c35.68-24.22,28.23-40.28,15.79-53.15
		c-15.61,18.09-11.89,36.04-21.94,55.34c-9.37,3.25-17.85,5.83-26.69,8.54c38.49-22.82,31.37-39.36,19.74-52.86
		c-17.08,17.19-14.71,34.15-26.73,55.02c-7.98,2.47-16.49,5.2-26.37,8.7c25.09-15.99,41.59-33.59,22.71-54.59
		c-22.01,18.06-19.06,35.68-30.34,57.35c-55.1,20.39-133.68,57.21-171.11,102.52l7,5.51c32.6-41.23,115-81.45,164.79-99.71
		c15.25,7.81,31.25,29.32,54.83,32.79c8.92-33.99-29.99-35.7-48.87-34.95c9.65-3.44,18.91-6.51,27.87-9.43
		c14.47,8.31,29.66,30.5,56.74,31.24c8.42-31.35-31.23-33.54-50.56-33.24c9.5-3.07,18.71-6.04,27.74-9.15
		c13.73,7.18,32.04,27.91,58.98,26.22c4.43-27.74-25.35-30.18-53.14-28.26c11.42-4.06,19.43-7.32,27.71-10.95
		c16.54,7.32,34.45,24.3,60.43,19.82c0.99-26.85-27.72-26.49-54.42-22.51c8.83-4.04,17.61-8.44,26.27-13.23
		c15.37,5.08,36.57,20.51,61.39,12.75c-2.41-25.72-30.54-22.22-55.76-15.93c8.46-4.87,16.8-10.11,24.94-15.76
		c14.38,3.05,38.2,16.01,61.65,5.04c-6.02-24.39-32.58-17.17-56.27-8.84c6.72-4.81,14.4-10.83,23.02-18.33
		c13.7,1.31,39.03,11,60.85-3.07c-9.34-21.9-34.06-12.28-55.93-1.33c6.74-6.11,14.14-13.57,20.7-20.89
		c14.61-0.56,38.76,6.07,58.88-11.23c-12.42-19.18-34.02-7.2-54.53,6.24c6.59-7.71,12.51-15.48,17.89-23.29
		c11.86-2.09,29.28,0.21,46.63-11.09c1.08-0.73,2.15-1.5,3.19-2.32c2.08-1.65,4.13-3.48,5.94-5.58
		c-15.08-16.08-34.26-1.84-52.08,13.52c5.38-8.21,10.31-16.7,14.79-25.39c11.05-3.51,37.24-4.3,51.65-25.96
		c-16.68-12.48-33.31,2.66-48.7,20.05c4.29-8.83,8.11-17.85,11.46-26.99c11.13-5.25,35.06-8.31,46.86-31.92
		c-18.28-9.2-31.95,7.22-44.63,25.63c3.19-9.29,5.88-18.68,8.12-28.1C726.88,411.03,750.98,404.18,759.58,379.94L759.58,379.94z"/>
</g>
<linearGradient id="SVGID_00000027600862436054758500000011079927628269707666_" gradientUnits="userSpaceOnUse" x1="192.971" y1="313.7988" x2="567.6506" y2="313.7988">
	<stop  offset="0" style="stop-color:#E6BF58"/>
	<stop  offset="0.1155" style="stop-color:#E7C260"/>
	<stop  offset="0.2966" style="stop-color:#EBCB76"/>
	<stop  offset="0.5205" style="stop-color:#F0D99B"/>
	<stop  offset="0.7761" style="stop-color:#F8ECCD"/>
	<stop  offset="1" style="stop-color:#FFFFFF"/>
</linearGradient>
<polygon style="fill:url(#SVGID_00000027600862436054758500000011079927628269707666_);" points="380.31,135.63 438.2,252.93 
	567.65,271.74 473.98,363.04 496.09,491.97 380.31,431.1 264.53,491.97 286.64,363.04 192.97,271.74 322.42,252.93 "/>
<g>
	<path class="st5" d="M243.7,8.57l-4.96,2.94c-0.93-1.61-1.81-2.66-2.65-3.15c-0.87-0.56-2-0.84-3.38-0.84
		c-1.7,0-3.1,0.48-4.22,1.44c-1.12,0.94-1.68,2.13-1.68,3.57c0,1.98,1.47,3.57,4.4,4.77l4.04,1.65c3.29,1.33,5.69,2.95,7.21,4.86
		c1.52,1.91,2.28,4.26,2.28,7.04c0,3.72-1.24,6.8-3.72,9.23c-2.5,2.45-5.6,3.67-9.31,3.67c-3.51,0-6.42-1.04-8.71-3.12
		c-2.25-2.08-3.66-5.01-4.22-8.78l6.19-1.36c0.28,2.38,0.77,4.02,1.47,4.93c1.26,1.75,3.09,2.62,5.51,2.62
		c1.9,0,3.49-0.64,4.75-1.91c1.26-1.28,1.89-2.89,1.89-4.85c0-0.79-0.11-1.51-0.33-2.16c-0.22-0.66-0.56-1.26-1.02-1.81
		c-0.46-0.55-1.06-1.07-1.8-1.55c-0.73-0.48-1.61-0.94-2.62-1.38l-3.91-1.63c-5.54-2.34-8.31-5.77-8.31-10.28
		c0-3.04,1.16-5.58,3.49-7.63c2.32-2.06,5.22-3.09,8.68-3.09C237.44,1.76,241.08,4.03,243.7,8.57z"/>
	<path class="st5" d="M264.05,8.29v34.74h-6.11V8.29h-9.31V2.54h24.7v5.74H264.05z"/>
	<path class="st5" d="M300.36,33.19h-17.33l-4.51,9.83h-6.58L291.97,0l19.32,43.03h-6.69L300.36,33.19z M297.87,27.45l-6-13.77
		l-6.29,13.77H297.87z"/>
	<path class="st5" d="M330.07,25.77l12.53,17.25h-7.47l-11.56-16.57h-1.1v16.57h-6.11V2.54h7.16c5.35,0,9.21,1.01,11.59,3.02
		c2.62,2.24,3.93,5.19,3.93,8.86c0,2.87-0.82,5.33-2.46,7.39C334.93,23.88,332.76,25.2,330.07,25.77z M322.47,21.13h1.94
		c5.79,0,8.68-2.21,8.68-6.63c0-4.14-2.81-6.21-8.44-6.21h-2.18V21.13z"/>
	<path class="st5" d="M354.79,2.54v34.74h11.9v5.74h-18.01V2.54H354.79z"/>
	<path class="st5" d="M394.83,8.29H378.6v9.73h15.76v5.74H378.6v13.53h16.23v5.74h-22.34V2.54h22.34V8.29z"/>
	<path class="st5" d="M402.85,43.03V2.54h8.5c4.07,0,7.29,0.4,9.65,1.21c2.53,0.79,4.83,2.12,6.9,4.01
		c4.18,3.81,6.27,8.82,6.27,15.02c0,6.22-2.18,11.26-6.53,15.1c-2.19,1.92-4.48,3.26-6.87,4.01c-2.24,0.75-5.41,1.13-9.52,1.13
		H402.85z M408.96,37.28h2.75c2.74,0,5.02-0.29,6.84-0.87c1.82-0.61,3.46-1.58,4.93-2.91c3.01-2.74,4.51-6.32,4.51-10.72
		c0-4.44-1.49-8.04-4.46-10.8c-2.67-2.46-6.62-3.7-11.82-3.7h-2.75V37.28z"/>
	<path class="st5" d="M462.66,21.95h16.73v1.34c0,3.04-0.36,5.73-1.08,8.08c-0.7,2.17-1.88,4.19-3.54,6.08
		c-3.76,4.23-8.54,6.34-14.34,6.34c-5.66,0-10.51-2.04-14.55-6.14c-4.04-4.11-6.06-9.04-6.06-14.79c0-5.87,2.05-10.85,6.16-14.94
		c4.11-4.11,9.11-6.16,15-6.16c3.16,0,6.12,0.65,8.86,1.94c2.62,1.29,5.2,3.39,7.73,6.29l-4.35,4.17
		c-3.32-4.42-7.37-6.63-12.14-6.63c-4.28,0-7.88,1.48-10.78,4.43c-2.9,2.9-4.35,6.54-4.35,10.91c0,4.51,1.62,8.22,4.85,11.14
		c3.02,2.71,6.3,4.06,9.83,4.06c3.01,0,5.71-1.01,8.1-3.04c2.39-2.04,3.73-4.49,4.01-7.34h-10.09V21.95z"/>
	<path class="st5" d="M509.41,8.29h-16.23v9.73h15.76v5.74h-15.76v13.53h16.23v5.74h-22.34V2.54h22.34V8.29z"/>
	<path class="st5" d="M531.14,25.77l12.53,17.25h-7.47l-11.56-16.57h-1.1v16.57h-6.11V2.54h7.16c5.35,0,9.21,1.01,11.59,3.02
		c2.62,2.24,3.93,5.19,3.93,8.86c0,2.87-0.82,5.33-2.46,7.39C536,23.88,533.84,25.2,531.14,25.77z M523.54,21.13h1.94
		c5.79,0,8.68-2.21,8.68-6.63c0-4.14-2.81-6.21-8.44-6.21h-2.18V21.13z"/>
</g>
</svg>
