<?xml version="1.0" encoding="utf-8"?>
<!-- Generator: Adobe Illustrator 25.4.1, SVG Export Plug-In . SVG Version: 6.00 Build 0)  -->
<svg version="1.1" id="Layer_1" xmlns="http://www.w3.org/2000/svg" xmlns:xlink="http://www.w3.org/1999/xlink" x="0px" y="0px"
	 viewBox="0 0 69.5 69.5" style="enable-background:new 0 0 69.5 69.5;" xml:space="preserve">
<style type="text/css">
	.st0{fill:#FFFFFF;}
</style>
<path class="st0" d="M4.8,30.7c18.7-8.1,31.1-13.5,37.3-16.1C59.9,7.3,63.6,6,66,6c0.5,0,1.7,0.1,2.5,0.7c0.6,0.5,0.8,1.2,0.9,1.7
	c0.1,0.5,0.2,1.6,0.1,2.5c-1,10.1-5.1,34.7-7.3,46c-0.9,4.8-2.7,6.4-4.4,6.6c-3.7,0.3-6.5-2.5-10.1-4.8c-5.6-3.7-8.8-6-14.3-9.6
	c-6.3-4.2-2.2-6.5,1.4-10.2c0.9-1,17.3-15.9,17.6-17.2c0-0.2,0.1-0.8-0.3-1.1c-0.4-0.3-0.9-0.2-1.3-0.1c-0.6,0.1-9.6,6.1-27,17.8
	c-2.6,1.8-4.9,2.6-6.9,2.6c-2.3,0-6.7-1.3-9.9-2.4c-4-1.3-7.2-2-6.9-4.2C0.2,33.1,1.7,32,4.8,30.7z"/>
</svg>
