<?xml version="1.0" encoding="utf-8"?>
<!-- Generator: Adobe Illustrator 26.0.1, SVG Export Plug-In . SVG Version: 6.00 Build 0)  -->
<svg version="1.1" id="Logo" xmlns="http://www.w3.org/2000/svg" xmlns:xlink="http://www.w3.org/1999/xlink" x="0px" y="0px"
	 viewBox="0 0 246.14 200" style="enable-background:new 0 0 246.14 200;" xml:space="preserve">
<style type="text/css">
	.st0{fill:#999999;}
</style>
<path id="Logo_1_" class="st0" d="M220.94,49.79c0.15,2.17,0.15,4.34,0.15,6.53c0,66.73-50.8,143.69-143.69,143.69v-0.04
	C49.97,200,23.09,192.14,0,177.32c3.99,0.48,8,0.72,12.02,0.73c22.74,0.02,44.83-7.61,62.72-21.66
	c-21.61-0.41-40.56-14.5-47.18-35.07c7.57,1.46,15.37,1.16,22.8-0.87C26.8,115.69,9.85,94.98,9.85,70.94c0-0.22,0-0.43,0-0.64
	c7.02,3.91,14.88,6.08,22.92,6.32C10.57,61.81,3.73,32.29,17.13,9.21C42.77,40.76,80.6,59.94,121.21,61.98
	c-4.07-17.54,1.49-35.92,14.61-48.25c20.34-19.12,52.33-18.14,71.45,2.19c11.31-2.23,22.15-6.38,32.07-12.26
	c-3.77,11.69-11.66,21.62-22.2,27.93c10.01-1.18,19.79-3.86,29-7.95C239.36,33.79,230.83,42.64,220.94,49.79z"/>
</svg>
